<svg xmlns="http://www.w3.org/2000/svg" viewBox="0 0 220 64" role="img" aria-label="WeChat Pay">
  <g>
    <path fill="#07C160" d="M27.4 8C15.1 8 5 16.7 5 27.5c0 6 3.1 11.4 8 15.1l-2 6.1 7.3-3.6c2.9.8 5.9 1.3 9.1 1.3.8 0 1.6 0 2.4-.1-.6-1.7-.9-3.5-.9-5.4 0-10.6 9.9-19.2 22.1-19.2.8 0 1.6 0 2.4.1C52 12.8 41 8 27.4 8zM20 21.5a3 3 0 1 1 0-6 3 3 0 0 1 0 6zm15 0a3 3 0 1 1 0-6 3 3 0 0 1 0 6z"/>
    <path fill="#07C160" d="M51 26.2c-10.5 0-19 7.5-19 16.6 0 5.1 2.7 9.7 6.9 12.7l-1.7 5.2 6.3-3.1c2.5.7 5.1 1.1 7.9 1.1.5 0 1 0 1.6-.1-.4-1.3-.6-2.6-.6-4 0-9.1 8.5-16.5 19-16.5 1 0 2 .1 3 .2-1.2-7-9.7-12.1-23.4-12.1zm-5.8 9.7a2.4 2.4 0 1 1 0-4.8 2.4 2.4 0 0 1 0 4.8zm11.5 0a2.4 2.4 0 1 1 0-4.8 2.4 2.4 0 0 1 0 4.8z"/>
  </g>
  <text x="84" y="28" font-family="Helvetica, Arial, sans-serif" font-size="20" font-weight="700" fill="#0a0a0a">WeChat</text>
  <text x="84" y="52" font-family="Helvetica, Arial, sans-serif" font-size="20" font-weight="500" fill="#0a0a0a">Pay</text>
</svg>
